<svg width="156" height="36" viewBox="0 0 156 36" fill="none" xmlns="http://www.w3.org/2000/svg">
<path d="M37.7322 13.4567C37.647 12.5973 37.2813 11.9297 36.6349 11.4538C35.9886 10.978 35.1115 10.7401 34.0036 10.7401C33.2507 10.7401 32.6151 10.8466 32.0966 11.0597C31.5781 11.2656 31.1804 11.5533 30.9034 11.9226C30.6335 12.2919 30.4986 12.7109 30.4986 13.1797C30.4844 13.5703 30.5661 13.9112 30.7436 14.2024C30.9283 14.4936 31.1804 14.7457 31.5 14.9588C31.8196 15.1648 32.1889 15.3459 32.608 15.5021C33.027 15.6513 33.4744 15.7791 33.9503 15.8857L35.9105 16.3544C36.8622 16.5675 37.7358 16.8516 38.5312 17.2067C39.3267 17.5618 40.0156 17.9986 40.598 18.517C41.1804 19.0355 41.6314 19.6463 41.951 20.3494C42.2777 21.0526 42.4446 21.8587 42.4517 22.7678C42.4446 24.103 42.1037 25.2607 41.429 26.2408C40.7614 27.2138 39.7955 27.9702 38.5312 28.5099C37.2741 29.0426 35.7578 29.3089 33.9822 29.3089C32.2209 29.3089 30.6868 29.0391 29.38 28.4993C28.0803 27.9595 27.0646 27.1605 26.3331 26.1023C25.6087 25.0369 25.2287 23.7195 25.1932 22.1499H29.657C29.7067 22.8814 29.9162 23.4922 30.2855 23.9822C30.6619 24.4652 31.1626 24.831 31.7876 25.0795C32.4197 25.321 33.1335 25.4418 33.929 25.4418C34.7102 25.4418 35.3885 25.3281 35.9638 25.1009C36.5462 24.8736 36.9972 24.5575 37.3168 24.1527C37.6364 23.7479 37.7962 23.2827 37.7962 22.7571C37.7962 22.267 37.6506 21.8551 37.3594 21.5213C37.0753 21.1875 36.6563 20.9034 36.1023 20.669C35.5554 20.4347 34.8842 20.2216 34.0888 20.0298L31.7131 19.4332C29.8736 18.9858 28.4212 18.2862 27.3558 17.3345C26.2905 16.3828 25.7614 15.1009 25.7685 13.4886C25.7614 12.1676 26.1129 11.0135 26.8232 10.0263C27.5405 9.03906 28.5241 8.26847 29.7741 7.71449C31.0241 7.16051 32.4446 6.88352 34.0355 6.88352C35.6548 6.88352 37.0682 7.16051 38.2756 7.71449C39.4901 8.26847 40.4347 9.03906 41.1094 10.0263C41.7841 11.0135 42.1321 12.157 42.1534 13.4567H37.7322ZM54.1731 12.6364V16.0455H44.3187V12.6364H54.1731ZM46.5559 8.71591H51.0943V23.9716C51.0943 24.3906 51.1582 24.7173 51.286 24.9517C51.4139 25.179 51.5914 25.3388 51.8187 25.4311C52.0531 25.5234 52.323 25.5696 52.6284 25.5696C52.8414 25.5696 53.0545 25.5518 53.2676 25.5163C53.4806 25.4737 53.644 25.4418 53.7576 25.4205L54.4714 28.7976C54.2441 28.8686 53.9245 28.9503 53.5126 29.0426C53.1007 29.142 52.6 29.2024 52.0105 29.2237C50.9167 29.2663 49.9579 29.1207 49.1341 28.7869C48.3173 28.4531 47.6816 27.9347 47.2271 27.2315C46.7725 26.5284 46.5488 25.6406 46.5559 24.5682V8.71591ZM64.3471 29.3196C62.6923 29.3196 61.2612 28.968 60.0538 28.2649C58.8535 27.5547 57.9267 26.5675 57.2733 25.3033C56.6199 24.032 56.2931 22.5582 56.2931 20.8821C56.2931 19.1918 56.6199 17.7145 57.2733 16.4503C57.9267 15.179 58.8535 14.1918 60.0538 13.4886C61.2612 12.7784 62.6923 12.4233 64.3471 12.4233C66.002 12.4233 67.4295 12.7784 68.6298 13.4886C69.8372 14.1918 70.7676 15.179 71.421 16.4503C72.0744 17.7145 72.4011 19.1918 72.4011 20.8821C72.4011 22.5582 72.0744 24.032 71.421 25.3033C70.7676 26.5675 69.8372 27.5547 68.6298 28.2649C67.4295 28.968 66.002 29.3196 64.3471 29.3196ZM64.3684 25.804C65.1213 25.804 65.7498 25.5909 66.2541 25.1648C66.7583 24.7315 67.1383 24.142 67.394 23.3963C67.6568 22.6506 67.7882 21.8018 67.7882 20.8501C67.7882 19.8984 67.6568 19.0497 67.394 18.304C67.1383 17.5582 66.7583 16.9687 66.2541 16.5355C65.7498 16.1023 65.1213 15.8857 64.3684 15.8857C63.6085 15.8857 62.9693 16.1023 62.4508 16.5355C61.9395 16.9687 61.5524 17.5582 61.2896 18.304C61.0339 19.0497 60.9061 19.8984 60.9061 20.8501C60.9061 21.8018 61.0339 22.6506 61.2896 23.3963C61.5524 24.142 61.9395 24.7315 62.4508 25.1648C62.9693 25.5909 63.6085 25.804 64.3684 25.804ZM75.3521 29V12.6364H79.752V15.4915H79.9224C80.2207 14.4759 80.7214 13.7088 81.4245 13.1903C82.1277 12.6648 82.9373 12.402 83.8535 12.402C84.0808 12.402 84.3258 12.4162 84.5886 12.4446C84.8514 12.473 85.0822 12.5121 85.2811 12.5618V16.5888C85.068 16.5249 84.7733 16.468 84.3968 16.4183C84.0204 16.3686 83.676 16.3438 83.3635 16.3438C82.6958 16.3438 82.0993 16.4893 81.5737 16.7805C81.0552 17.0646 80.6433 17.4624 80.3379 17.9737C80.0396 18.4851 79.8904 19.0746 79.8904 19.7422V29H75.3521ZM90.9274 35.1364C90.3521 35.1364 89.8123 35.0902 89.3081 34.9979C88.8109 34.9126 88.399 34.8026 88.0723 34.6676L89.095 31.2798C89.6277 31.4432 90.1071 31.532 90.5332 31.5462C90.9664 31.5604 91.3393 31.4609 91.6518 31.2479C91.9714 31.0348 92.2306 30.6726 92.4295 30.1612L92.6958 29.4688L86.8258 12.6364H91.5985L94.9863 24.6534H95.1568L98.5765 12.6364H103.381L97.0211 30.7685C96.7157 31.6491 96.3002 32.4162 95.7747 33.0696C95.2562 33.7301 94.5993 34.2379 93.8038 34.593C93.0083 34.9553 92.0495 35.1364 90.9274 35.1364Z" fill="#4C44B8"/>
<path d="M105.789 29V7.18182H110.402V25.1967H119.756V29H105.789ZM130.183 29.3196C128.499 29.3196 127.05 28.9787 125.836 28.2969C124.629 27.608 123.698 26.6349 123.045 25.3778C122.391 24.1136 122.065 22.6186 122.065 20.8928C122.065 19.2095 122.391 17.7322 123.045 16.4609C123.698 15.1896 124.618 14.1989 125.804 13.4886C126.997 12.7784 128.396 12.4233 130.001 12.4233C131.081 12.4233 132.086 12.5973 133.016 12.9453C133.954 13.2862 134.771 13.8011 135.467 14.4901C136.17 15.179 136.717 16.0455 137.107 17.0895C137.498 18.1264 137.693 19.3409 137.693 20.733V21.9794H123.876V19.1669H133.421C133.421 18.5135 133.279 17.9347 132.995 17.4304C132.711 16.9261 132.317 16.532 131.812 16.2479C131.315 15.9567 130.737 15.8111 130.076 15.8111C129.387 15.8111 128.776 15.9709 128.244 16.2905C127.718 16.603 127.306 17.0256 127.008 17.5582C126.71 18.0838 126.557 18.6697 126.55 19.3161V21.9901C126.55 22.7997 126.699 23.4993 126.997 24.0888C127.303 24.6783 127.732 25.1328 128.286 25.4524C128.84 25.772 129.497 25.9318 130.257 25.9318C130.761 25.9318 131.223 25.8608 131.642 25.7188C132.061 25.5767 132.42 25.3636 132.718 25.0795C133.016 24.7955 133.244 24.4474 133.4 24.0355L137.597 24.3125C137.384 25.321 136.947 26.2017 136.287 26.9545C135.634 27.7003 134.788 28.2827 133.751 28.7017C132.722 29.1136 131.532 29.3196 130.183 29.3196ZM144.154 12.6364L147.159 18.3572L150.238 12.6364H154.893L150.152 20.8182L155.021 29H150.387L147.159 23.343L143.984 29H139.297L144.154 20.8182L139.467 12.6364H144.154Z" fill="#A29BFE"/>
<path d="M8.5 6L11.3333 11.6667L17 14.5L11.3333 17.3333L8.5 23L5.66667 17.3333L0 14.5L5.66667 11.6667L8.5 6Z" fill="#4C44B8"/>
<path d="M19 16L20.6667 19.3333L24 21L20.6667 22.6667L19 26L17.3333 22.6667L14 21L17.3333 19.3333L19 16Z" fill="#A29BFE"/>
</svg>
